<?xml version="1.0" standalone="no"?>
<!DOCTYPE svg PUBLIC "-//W3C//DTD SVG 1.1//EN" "http://www.w3.org/Graphics/SVG/1.1/DTD/svg11.dtd" >
<svg xmlns="http://www.w3.org/2000/svg">
<metadata>
Created by FontForge 20120731 at Sat Mar 28 18:51:53 2015
 By Ads
</metadata>
<defs>
<font id="iconfont" horiz-adv-x="1024" >
  <font-face 
    font-family="iconfont"
    font-weight="500"
    font-stretch="normal"
    units-per-em="1024"
    panose-1="2 0 6 3 0 0 0 0 0 0"
    ascent="812"
    descent="-212"
    x-height="792"
    bbox="-0.097561 -212 1024.92 812"
    underline-thickness="50"
    underline-position="-100"
    unicode-range="U+0078-E626"
  />
<missing-glyph horiz-adv-x="374" 
d="M34 0v682h272v-682h-272zM68 34h204v614h-204v-614z" />
    <glyph glyph-name=".notdef" horiz-adv-x="374" 
d="M34 0v682h272v-682h-272zM68 34h204v614h-204v-614z" />
    <glyph glyph-name=".null" horiz-adv-x="0" 
 />
    <glyph glyph-name="nonmarkingreturn" horiz-adv-x="341" 
 />
    <glyph glyph-name="x" unicode="x" horiz-adv-x="1001" 
d="M281 543q-27 -1 -53 -1h-83q-18 0 -36.5 -6t-32.5 -18.5t-23 -32t-9 -45.5v-76h912v41q0 16 -0.5 30t-0.5 18q0 13 -5 29t-17 29.5t-31.5 22.5t-49.5 9h-133v-97h-438v97zM955 310v-52q0 -23 0.5 -52t0.5 -58t-10.5 -47.5t-26 -30t-33 -16t-31.5 -4.5q-14 -1 -29.5 -0.5
t-29.5 0.5h-32l-45 128h-439l-44 -128h-29h-34q-20 0 -45 1q-25 0 -41 9.5t-25.5 23t-13.5 29.5t-4 30v167h911zM163 247q-12 0 -21 -8.5t-9 -21.5t9 -21.5t21 -8.5q13 0 22 8.5t9 21.5t-9 21.5t-22 8.5zM316 123q-8 -26 -14 -48q-5 -19 -10.5 -37t-7.5 -25t-3 -15t1 -14.5
t9.5 -10.5t21.5 -4h37h67h81h80h64h36q23 0 34 12t2 38q-5 13 -9.5 30.5t-9.5 34.5q-5 19 -11 39h-368zM336 498v228q0 11 2.5 23t10 21.5t20.5 15.5t34 6h188q31 0 51.5 -14.5t20.5 -52.5v-227h-327z" />
    <glyph glyph-name="uniE600" unicode="&#xe600;" 
d="M881 614q-76 75 -183 77.5t-186 -69.5q-39 35 -88 53t-98 17t-97.5 -21t-85.5 -57q-39 -38 -59 -87.5t-20 -100t20 -100t59 -87.5q309 -305 309 -306q25 -25 60 -25t60 25q306 303 309 306q79 78 79 188t-79 187zM841 279l-309 -306q-3 -4 -7 -6t-8.5 -2.5t-9 0t-8.5 2.5
t-7 6l-309 306q-62 61 -62 148t62 148q59 59 143.5 60.5t147.5 -54.5l38 -34l38 34q63 56 147.5 54.5t144.5 -60.5q30 -30 46 -69.5t16 -79t-16 -78.5t-47 -69zM323 552q-49 0 -84 -35t-35 -84q0 -6 4 -10t10 -4t10 4t4 10q0 37 26.5 64t64.5 27q4 0 7 1.5t5 5t2 7t-2 7
t-5 5.5t-7 2z" />
    <glyph glyph-name="uniE601" unicode="&#xe601;" 
d="M209 343l-2 5l-1 7l-1 4v4v6v4l2 6l1 6l3 7l2 7l4 8l5 7v5l1 5l1 7l2 7l2 9l2 3l2 4l2 4l3 2v6v6v7l1 10l2 11l3 13l4 14l2 7l3 9l3 7l4 8l4 10l4 8l5 9l6 9l3 5l3 4l7 10l7 10l7 9l9 10l9 9l9 10l11 10l8 7l8 6l9 7l10 5l9 5l11 5l11 5l11 4l11 3l12 4l11 3l13 2l13 2
l12 2l13 2h13h12h14h13l13 -1l13 -2l14 -1l12 -3l13 -3l13 -3l13 -4l13 -4l12 -5l12 -6l12 -5l11 -7l11 -7l9 -6l5 -4l4 -3l9 -7l8 -8l7 -7l7 -8l6 -8l7 -8l5 -9l5 -8l6 -9l4 -8l7 -17l4 -9l3 -8l3 -9l2 -8l2 -7l2 -9l4 -15l3 -13l2 -12l1 -10l2 -16l1 -2l2 -3l5 -8l3 -5
l2 -6l4 -6l3 -7l2 -8l2 -8l2 -8l1 -4l1 -6v-4l-1 -4v-6l-1 -5l-3 -10l-2 -5l-2 -6v-2v-1l3 -5l12 -17l9 -13l4 -8l6 -10l5 -10l6 -11l6 -12l7 -14l4 -9l3 -8l3 -9l3 -8l2 -9l3 -8l2 -15l3 -16l1 -14v-7v-6v-6l-1 -7l-1 -12l-2 -11l-4 -10l-1 -4l-2 -4l-2 -4l-2 -4l-3 -2
l-2 -4l-3 -3l-2 -2l-4 -1l-3 -2h-2h-2h-1h-3l-4 3l-2 1l-2 1l-3 3l-2 2l-4 4l-4 6l-4 6l-3 5l-4 6l-5 10l-5 11l-1 1h-1l-2 -2l-2 -3l-2 -3l-3 -11l-6 -15l-7 -17l-6 -9l-6 -10l-7 -10l-7 -10l-3 -5l-5 -5l-10 -10l1 -1l1 -1l5 -3l22 -11l9 -5l9 -5l9 -7l8 -6l4 -3l2 -4
l3 -4l3 -4l1 -4l2 -4v-4l1 -4l-1 -3v-3v-3l-2 -3v-2l-2 -3l-4 -5l-3 -5l-3 -3l-3 -2l-5 -5l-7 -3l-7 -4l-8 -3l-9 -4l-4 -1l-4 -1l-10 -3l-10 -2l-11 -2l-11 -2h-12l-11 -2h-12h-13h-12l-14 1l-12 1l-13 2l-13 1l-14 2l-14 4l-13 2l-13 4l-14 5l-13 4l-7 2l-6 2l-4 2l-4 1
h-5h-6l-12 1h-7l-8 1l-5 -5l-7 -4l-10 -5l-11 -6l-7 -3l-6 -3l-16 -6l-8 -2l-8 -2l-12 -3h-8l-8 -1l-8 -1h-10h-9h-10h-20h-22l-22 2l-11 2l-11 2l-10 1l-10 2l-10 3l-9 2l-9 4l-8 3l-8 4l-6 4l-7 4l-2 3l-3 3l-2 2l-2 3l-2 3l-1 3l-2 6l-1 3l-1 3v3l1 4v4l1 3v2v5v4l2 5
l1 4l3 5l2 2l1 3l4 5l3 2l4 2l2 2l5 2l3 2l5 2l5 2l5 2l6 1l6 1h7l7 1l2 1h1v1l-1 2l-4 2l-10 8l-6 5l-8 7l-7 7l-8 10l-9 10l-4 6l-4 6l-4 7l-3 7l-5 7l-3 8l-4 9l-3 9l-3 8l-2 11h-1h-1v1h-1l-2 -1h-1l-1 -2v-2l-1 -2l-1 -3l-5 -8l-2 -5l-4 -4l-3 -5l-5 -6l-4 -4l-5 -5
l-5 -5l-6 -3l-6 -4l-5 -2l-7 -2h-7h-1h-2l-1 3l-2 1l-2 6l-2 4l-2 4l-1 5l-1 5l-2 11l-1 7v7v15l1 16l1 8l2 9l1 9l3 8l3 10l3 10l3 9l4 10l5 9l5 11l5 9l7 11l7 9l7 10l6 8l7 8l8 8l4 4l5 5l6 6l7 5l11 10l8 6z" />
    <glyph glyph-name="uniE602" unicode="&#xe602;" 
d="M597 641q18 0 31 -12l298 -299q13 -12 13 -30t-13 -30l-298 -299q-13 -12 -31 -12t-30 12t-12 30t12 31l226 225h-665q-18 0 -30.5 12.5t-12.5 30.5t12.5 30.5t30.5 12.5h665l-226 225q-12 13 -12 31t12 30t30 12z" />
    <glyph glyph-name="uniE603" unicode="&#xe603;" 
d="M386 79q11 18 6 38.5t-25 28.5q-20 9 -42.5 0.5t-33.5 -25.5q-13 -20 -8 -39.5t24.5 -29.5t43 -1t35.5 28zM439 147q5 8 2 16t-10 10q-7 3 -16 0t-13 -10q-9 -19 9 -27q8 -2 16 1t12 10zM539 86q-26 -58 -90.5 -85t-127.5 -7q-62 19 -84.5 72.5t3.5 106.5q27 53 86.5 80
t119.5 10q64 -16 91.5 -67.5t1.5 -109.5zM717 178q-5 54 -50 96t-120 62.5t-157 12.5q-127 -13 -211 -80.5t-76 -151.5q6 -55 52 -97t118.5 -62t156.5 -12q128 13 211 80.5t76 151.5zM893 175q0 -39 -20.5 -79t-62.5 -79t-96.5 -66.5t-129 -48t-154.5 -17.5t-157.5 19.5
t-137 52.5t-98.5 87t-37 114q0 65 40 140t113 147q96 97 195 134.5t140 -3.5q37 -36 12 -119q-2 -9 0 -12t5 -4t8 0t8 2l3 1q80 34 141.5 34t87.5 -35q25 -35 0 -101q-1 -8 -3 -11t3 -7.5t7 -5.5t9 -3q33 -10 59.5 -26.5t45 -47t19.5 -66.5zM851 532q23 -27 30.5 -62
t-2.5 -68q-6 -12 -18 -19t-25 -2t-20 17.5t-2 25.5q11 36 -13.5 62.5t-61.5 20.5q-13 -3 -25.5 4t-14.5 21q-3 15 5.5 26t20.5 14q35 8 68.5 -2.5t57.5 -38.5v1zM954 626q50 -56 65 -128.5t-8 -137.5q-5 -16 -19.5 -23t-30 -2t-22.5 19.5t-3 29.5q16 47 6 98t-46 90
q-36 40 -85 54.5t-98 5.5q-17 -3 -30 6t-17 24.5t5 30t25 16.5q70 14 139.5 -6.5t118.5 -76.5z" />
    <glyph glyph-name="uniE604" unicode="&#xe604;" 
d="M950 -96l-270 272q81 96 81 222q0 57 -18 110t-50 96t-74.5 75t-95.5 49.5t-110 17.5t-110 -17.5t-95.5 -49.5t-75 -75t-50 -96t-17.5 -110q0 -94 46.5 -174t126.5 -126.5t175 -46.5q130 0 228 85l270 -272q8 -8 19.5 -8t19.5 8.5t8 20t-8 19.5zM413 106
q-121 0 -207 85.5t-86 207t86 207t207 85.5q59 0 113.5 -23t93.5 -62.5t62 -93.5t23 -113.5t-23 -113.5t-62 -93.5t-93.5 -62.5t-113.5 -23z" />
    <glyph glyph-name="uniE605" unicode="&#xe605;" 
d="M507.5 568q-66.5 0 -113 -47t-46.5 -113t46.5 -113t113.5 -47q32 0 61.5 13t51 34.5t34 51t12.5 61.5q0 66 -46.5 113t-113 47zM507.5 288q-49.5 0 -84.5 35.5t-35 84.5q0 24 9.5 46.5t25.5 38.5t38 25.5t46.5 9.5t46.5 -9.5t38 -25.5t25.5 -38.5t9.5 -46.5
q0 -49 -35 -84.5t-84.5 -35.5zM511 741q-68 0 -130 -26.5t-107 -71.5t-71.5 -107t-26.5 -131q0 -25 8.5 -57t23 -64t34.5 -67.5t41.5 -67.5t46 -66t46 -61t43 -53t36 -42.5t26 -30t12.5 -13.5l18 -21l18 21l12 13q12 14 26 30.5t36 42.5t43.5 53t46 61t46 66t41.5 67.5
t34.5 67.5t23 64t8.5 57q0 69 -26.5 131t-71.5 107t-107 71.5t-130 26.5zM511 -64q-4 5 -13 15q-42 52 -67.5 83.5t-70 92t-70 103.5t-46 92t-20.5 83q0 78 38.5 144.5t104.5 105t144 38.5q119 0 203 -84.5t84 -203.5q0 -28 -11.5 -63.5t-34.5 -76.5t-45 -75.5t-56.5 -79
t-53.5 -68.5t-50.5 -62.5t-35.5 -43.5z" />
    <glyph glyph-name="uniE606" unicode="&#xe606;" 
d="M816 315l-318 318l-30 -31l318 -317l-315 -315l30 -30l345 345zM482 315h-1l-317 318l-30 -31l317 -317l-314 -315l30 -30l345 345z" />
    <glyph glyph-name="uniE607" unicode="&#xe607;" 
d="M730 -92l-394 392l394 392q5 5 7 11.5t1 12.5t-6 10q-6 7 -16.5 6.5t-18.5 -8.5l-406 -404q-2 -2 -4 -5.5t-3 -7.5t-1 -7q0 -5 2 -10.5t7 -9.5l405 -404q4 -4 9 -6t9.5 -2.5t9 1t7.5 5.5q7 6 6.5 16.5t-8.5 17.5z" />
    <glyph glyph-name="uniE608" unicode="&#xe608;" 
d="M289.5 -126.5q6.5 -6.5 16.5 -6t18 8.5l406 404q9 8 8 20q1 12 -8 20l-406 404q-8 8 -18 8.5t-16.5 -6t-6 -17t8.5 -17.5l394 -392l-394 -392q-8 -7 -8.5 -17.5t6 -17z" />
    <glyph glyph-name="uniE609" unicode="&#xe609;" 
d="M902 519l-391 -394l-392 394q-5 5 -11.5 7t-12.5 1t-11 -5q-6 -7 -5.5 -17.5t8.5 -17.5l403 -406q3 -3 6.5 -5t7 -3t7.5 -1q12 0 20 9l404 406q7 7 8 17.5t-6 17.5q-3 3 -7.5 4.5t-9 1t-9.5 -2.5t-9 -6z" />
    <glyph glyph-name="uniE60A" unicode="&#xe60a;" 
d="M693 465q16 0 35 -2q-11 53 -45 100.5t-82.5 81t-110.5 53t-128 19.5q-73 0 -140 -24t-115.5 -65t-77.5 -98.5t-29 -120.5q0 -144 145 -245l-36 -109l126 64q6 -1 25.5 -5t27 -5.5t22.5 -4t27 -3.5t25 -1q6 0 12 0.5t11 0.5t11 1q-11 38 -11 76q0 119 89.5 203t218.5 84z
M498 563q10 0 18.5 -3.5t14.5 -9t9.5 -14t3.5 -18.5q0 -21 -12.5 -33.5t-33.5 -12.5q-13 0 -25.5 5.5t-20.5 16.5t-8 24q0 30 34 42q10 3 20 3zM245 472q-22 0 -38.5 13t-16.5 33q0 13 8 23.5t20.5 16t26.5 5.5q20 0 32.5 -12.5t12.5 -33t-12.5 -33t-32.5 -12.5zM1024 182
q0 71 -43 132t-113.5 96t-151.5 35q-129 0 -218.5 -77t-89.5 -186q0 -71 40.5 -131.5t111.5 -96t156 -35.5q11 0 22.5 1t20.5 2.5t22.5 4.5t21 5t22.5 5l99 -54l-27 91q126 95 127 208zM616 228q-13 0 -24.5 11t-11.5 25q0 9 5 17.5t13.5 13.5t17.5 5q20 0 33 -11t13 -25.5
t-13 -25t-33 -10.5zM816 228q-14 0 -25 11t-11 25q0 5 2 10.5t5.5 10t8 8t9.5 5.5t11 2q19 0 32 -11t13 -25q0 -7 -3.5 -13.5t-9 -11.5t-14.5 -8t-18 -3z" />
    <glyph glyph-name="uniE60B" unicode="&#xe60b;" 
d="M512 44q-13 0 -22.5 9.5t-9.5 22.5v96q0 13 9.5 22.5t22.5 9.5t22.5 -9.5t9.5 -22.5v-96q0 -13 -9.5 -22.5t-22.5 -9.5zM832 -148h-640q-40 0 -68 28t-28 68v352q0 40 28 68t68 28h640q40 0 68 -28t28 -68v-352q0 -40 -28 -68t-68 -28zM192 332q-13 0 -22.5 -9.5
t-9.5 -22.5v-352q0 -13 9.5 -22.5t22.5 -9.5h640q13 0 22.5 9.5t9.5 22.5v352q0 13 -9.5 22.5t-22.5 9.5h-640zM736 332q-13 0 -22.5 9.5t-9.5 22.5v130q0 52 -29.5 96.5t-74 69t-90.5 24.5q-74 0 -132 -52.5t-58 -137.5v-130q0 -13 -9.5 -22.5t-22.5 -9.5t-22.5 9.5
t-9.5 22.5v130q0 76 38 135.5t95 89t121 29.5q23 0 46.5 -5t45.5 -14t43.5 -22t39.5 -29.5t33.5 -37t26.5 -43.5t17 -49.5t6 -53.5v-130q0 -13 -9.5 -22.5t-22.5 -9.5z" />
    <glyph glyph-name="uniE60C" unicode="&#xe60c;" 
d="M736 -180h-448q-40 0 -68 28t-28 68v768q0 40 28 68t68 28h448q40 0 68 -28t28 -68v-768q0 -40 -28 -68t-68 -28zM288 716q-13 0 -22.5 -9.5t-9.5 -22.5v-768q0 -13 9.5 -22.5t22.5 -9.5h448q13 0 22.5 9.5t9.5 22.5v768q0 13 -9.5 22.5t-22.5 9.5h-448zM512 -84
q-26 0 -45 18.5t-19 45t19 45.5t45 19t45 -19t19 -45q0 -18 -8.5 -32.5t-23.5 -23t-32 -8.5zM512 -20v-32v32zM704 76h-384q-13 0 -22.5 9.5t-9.5 22.5v544q0 13 9.5 22.5t22.5 9.5h384q13 0 22.5 -9.5t9.5 -22.5v-544q0 -13 -9.5 -22.5t-22.5 -9.5zM352 140h320v480h-320
v-480z" />
    <glyph glyph-name="uniE60D" unicode="&#xe60d;" 
d="M216 600q98 98 237 118q33 4 66 4t65 -6t63 -16.5t60 -26t56 -35.5q45 -33 79 -76.5t55.5 -94t29.5 -105.5q16 -112 -26 -215.5t-129.5 -173t-199.5 -85.5q-149 -22 -277 56q-11 7 -14 19t3.5 22.5t18.5 13.5t23 -3q110 -67 237 -49q97 14 172 73.5t110.5 148t22.5 185.5
q-3 18 -7 35t-10 33.5t-13.5 32.5t-16.5 31t-19.5 29t-22 27t-24.5 25t-28 23q-119 89 -266 68q-72 -10 -134 -47.5t-102.5 -92t-59.5 -124.5t-9 -142q12 -78 53 -143q7 -10 4.5 -22.5t-13 -19t-22.5 -4t-19 13.5q-24 38 -39.5 79.5t-22.5 86.5q-12 83 8.5 163.5t71.5 147.5
q9 12 19 23.5t20 22.5v0zM515 22q-18 0 -31.5 13.5t-13.5 32t13.5 31.5t32 13t31.5 -13t13 -31.5t-13 -32t-32 -13.5v0zM598 328l-11 -11q-4 -4 -10.5 -11t-10 -11.5t-8.5 -11t-7 -11t-4 -10.5t-2 -11v-50q0 -5 -1.5 -9.5t-4 -8.5t-6.5 -6.5t-8.5 -4t-9.5 -1.5
q-12 0 -21 8.5t-9 21.5v50q0 23 12.5 47t24 37t34.5 36q16 16 24 25t16.5 22t8.5 22q0 15 -4.5 28.5t-13 25t-19.5 19.5t-24.5 13t-28.5 5q-38 0 -64 -26t-26 -63q0 -12 -8.5 -21t-21 -9t-21 9t-8.5 21q0 61 43.5 104.5t105.5 43.5t106 -44t44 -106q0 -16 -5 -31t-16.5 -30
t-20 -24.5t-25.5 -26.5v0zM216 600q98 98 237 118q33 4 66 4t65 -6t63 -16.5t60 -26t56 -35.5q45 -33 79 -76.5t55.5 -94t29.5 -105.5q16 -112 -26 -215.5t-129.5 -173t-199.5 -85.5q-149 -22 -277 56q-11 7 -14 19t3.5 22.5t18.5 13.5t23 -3q110 -67 237 -49
q97 14 172 73.5t110.5 148t22.5 185.5q-3 18 -7 35t-10 33.5t-13.5 32.5t-16.5 31t-19.5 29t-22 27t-24.5 25t-28 23q-119 89 -266 68q-72 -10 -134 -47.5t-102.5 -92t-59.5 -124.5t-9 -142q12 -78 53 -143q7 -10 4.5 -22.5t-13 -19t-22.5 -4t-19 13.5q-24 38 -39.5 79.5
t-22.5 86.5q-12 83 8.5 163.5t71.5 147.5q9 12 19 23.5t20 22.5v0z" />
    <glyph glyph-name="uniE60E" unicode="&#xe60e;" 
d="M922 641h-52v-853h52q42 0 72 33.5t30 80.5v626q0 46 -30 79.5t-72 33.5zM0 528v-626q0 -47 30 -80.5t72 -33.5h52v853h-52q-42 0 -72 -33.5t-30 -79.5zM686 760q-1 1 -13.5 7.5t-17 8.5t-17.5 8.5t-21 9t-22 7t-25.5 6.5t-27 3.5t-30.5 1.5t-30.5 -1.5t-27 -3.5
t-25.5 -6.5t-22 -7t-21 -9t-17.5 -8.5t-17 -8.5t-13.5 -7.5v-119h-113v-853h574v853h-113v119zM625 641h-226v76q56 27 113 27t113 -27v-76z" />
    <glyph glyph-name="uniE60F" unicode="&#xe60f;" 
d="M794 303q-1 4 -3 7l-240 399l-40 67l-39 -67l-241 -401l-2 -4q-20 -36 -31 -76.5t-11 -82.5q0 -53 16.5 -102.5t46.5 -89t70 -69.5t89.5 -46.5t102 -16.5t102 16.5t89.5 46.5t70 69.5t46.5 89t16.5 102.5q-1 85 -42 158z" />
    <glyph glyph-name="uniE610" unicode="&#xe610;" 
d="M1016 20q0 -11 -4.5 -21.5t-12 -18t-18 -12t-22.5 -4.5h-898q-23 0 -39.5 16.5t-16.5 39.5v561q0 23 16.5 39.5t39.5 16.5h898q23 0 40 -16.5t17 -39.5v-561zM213 417q-5 24 -33 24h-118l-1 -6q137 -35 177 -147zM245 249l-7 39q-6 15 -15.5 29.5t-22 27t-27 22.5
t-30.5 16l59 -223h77l115 281h-77zM450 159l46 282h-73l-46 -282h73zM649 446q-27 0 -49.5 -7t-38.5 -19t-25.5 -29.5t-9.5 -37.5q0 -27 18 -45t46 -32q21 -10 29 -17.5t8 -17.5q0 -6 -3.5 -11.5t-10 -9t-14 -5t-15.5 -1.5h-8q-4 0 -8 0.5t-7.5 1t-6.5 1t-6.5 1t-6.5 1.5
l-6 2l-6 2q-3 1 -6.5 2.5t-6.5 3.5l-10 4l-10 -63q14 -6 36 -10.5t45 -4.5q57 0 91.5 26.5t35.5 69.5q0 24 -15 43t-47 34q-4 2 -7.5 4t-7.5 4t-6.5 3.5t-5.5 3.5t-5 4t-3.5 4t-2.5 3.5t-1.5 4t-0.5 4.5q0 3 1.5 6.5t4.5 7t8 5.5t12 3.5t15 1.5q17 0 30.5 -3t24.5 -8l6 -3
l10 61q-30 12 -65 12zM845 441q-15 0 -24 -5.5t-15 -18.5l-107 -258h76l15 42h93q2 -9 9 -42h67l-58 282h-56zM811 259q6 17 29 79l2 4q1 4 3.5 11t3.5 12l6 -25l4 -20q2 -10 3.5 -17t2.5 -13.5t2 -10.5t2 -7.5t1 -6v-3.5l1 -2v-1h-11h-18h-17h-14z" />
    <glyph glyph-name="uniE611" unicode="&#xe611;" 
d="M918 469q-34 78 -94 138.5t-138 93.5q-81 34 -169.5 34t-169.5 -34q-38 -17 -73 -40.5t-65 -53t-53 -64.5t-40 -74q-34 -81 -34 -169t34 -169q33 -78 93 -138.5t138 -93.5q41 -17 83.5 -25.5t86.5 -8.5t86.5 8.5t82.5 25.5q78 33 138 93.5t94 138.5q34 81 34 169t-34 169
zM788 28.5q-54 -54.5 -124 -83.5t-147 -29q-51 0 -99.5 13t-92 38.5t-80.5 61.5q-21 21 -39 45.5t-31.5 51.5t-23 55t-14 58t-4.5 61q0 38 7.5 75.5t21.5 71.5t35 65.5t48 58.5q55 55 125 84t147 29t147 -29t124 -84q36 -36 61.5 -79.5t38.5 -92t13 -99.5q0 -77 -29.5 -147
t-83.5 -124.5zM383 399q-4 0 -7 -1t-6 -2.5t-5.5 -4t-4 -5t-2.5 -6t-1 -6.5v-11q-9 2 -18 2q-30 0 -51.5 -21t-21.5 -51q0 -20 9.5 -36.5t26.5 -26t37 -9.5q9 0 18 2v-11q0 -11 7.5 -18.5t18.5 -7.5q7 0 12.5 3.5t9 9.5t3.5 13v162q0 10 -7.5 17.5t-17.5 7.5zM691 365
q-9 0 -17 -2v10q0 10 -7.5 17.5t-17.5 7.5q-7 0 -13 -3.5t-9.5 -9t-3.5 -12.5v-157q0 -10 7.5 -17.5t18 -7.5t18 7.5t7.5 17.5v6q8 -2 17 -2q30 0 51 21.5t21 51.5q0 15 -5.5 28t-15 23t-23 15.5t-28.5 5.5z" />
    <glyph glyph-name="uniE612" unicode="&#xe612;" 
d="M920 263l-168 -108l52 -21q-44 -76 -122 -122t-170 -46q-95 0 -174 48t-123 127h-109q48 -122 159 -198t247 -76q123 0 226 63t159 167l57 -24zM220 466q21 37 52 68t68.5 53.5t81.5 34.5t90 12q95 0 174 -48t123 -127h109q-32 80 -92 141.5t-141.5 97t-172.5 35.5
q-123 0 -226 -63t-159 -167l-57 24l34 -190l168 108zM220 466zM691.5 286.5q-17.5 29.5 -56.5 49t-128 38.5q-37 8 -46 17q-10 8 -10 19q0 14 12 24.5t36 10.5q29 0 45.5 -14t21.5 -44l129 8q-3 23 -10 42t-17.5 33.5t-25.5 24.5q-8 6 -18 11t-21 8.5t-23.5 6.5t-26.5 4v29
h-74v-28q-7 -1 -14.5 -1.5t-14 -1.5t-13 -2.5t-12.5 -3t-11.5 -3.5t-10.5 -4q-20 -9 -34.5 -21t-24.5 -27t-15 -31.5t-5 -33.5q0 -52 39 -85q38 -34 128 -54q55 -12 70 -25.5t15 -30.5q0 -19 -15.5 -32.5t-45.5 -13.5q-13 0 -24 3t-20 9t-16 15q-13 16 -17 48l-131 -8
q6 -67 50 -111q36 -36 122 -42v-27h74v28q39 4 67 17q42 18 65.5 54t23.5 79q0 36 -17.5 65.5z" />
    <glyph glyph-name="uniE613" unicode="&#xe613;" 
d="M161 110q34 0 63 -13t50.5 -35t34.5 -51t13 -62q0 -34 -13 -63t-34.5 -50.5t-50.5 -34.5t-63 -13q-33 0 -62 13t-51 34.5t-35 50.5t-13 63q0 33 13 62t35 51t51 35t62 13zM67 434q119 0 225 -45.5t184.5 -124.5t124 -185t45.5 -225h-89q-44 0 -84 1q0 84 -31.5 158
t-87 129.5t-129.5 87t-158 31.5v173zM68 743q122 0 236 -31.5t212.5 -89.5t179.5 -139.5t139 -180t89.5 -212t31.5 -235.5h-59h-37q-16 0 -30 0.5t-32 0.5q0 100 -26.5 193.5t-74 174.5t-114 147.5t-147.5 113.5t-174 73.5t-193 26.5v32q0 25 -0.5 51t-0.5 48v27z" />
    <glyph glyph-name="uniE614" unicode="&#xe614;" 
d="M237 37q0 19 -13.5 32.5t-32.5 13.5h-124q-20 0 -33.5 -13.5t-13.5 -32.5t13.5 -33t33.5 -14h124q3 0 7 1t7.5 2t6.5 2.5t6 4t5.5 5t4.5 5t4 6t3 7t1.5 7t0.5 7.5zM20 300q0 -19 13.5 -32.5t33.5 -13.5h124q19 0 32.5 13.5t13.5 32.5t-13.5 33t-32.5 14h-124q-7 0 -13 -2
t-11 -5t-9.5 -7t-7.5 -9.5t-4.5 -11.5t-1.5 -12zM66 517h125q12 0 23 6t17 17t6 23q0 19 -13.5 33t-32.5 14h-125q-19 0 -32.5 -14t-13.5 -33t13.5 -32.5t32.5 -13.5zM612 505h-3q-3 -26 -11 -51l-69 -211h161l-68 210q-7 20 -10 52zM928 749h-48h-17h-207h-496
q-20 0 -33.5 -13.5t-13.5 -32.5v-47h78q38 0 65.5 -27t27.5 -66q0 -25 -12.5 -46.5t-34 -34t-46.5 -12.5h-78v-77h78q18 0 35.5 -7.5t30 -20t20 -29.5t7.5 -36q0 -38 -27.5 -65.5t-65.5 -27.5h-78v-77h78q25 0 46.5 -12.5t34 -34t12.5 -46.5t-12.5 -46.5t-34 -34
t-46.5 -12.5h-78v-46q0 -20 13.5 -33.5t33.5 -13.5h457h39h207h65q26 0 45 13.5t19 33.5v805q0 19 -19 32.5t-45 13.5zM766 5l-45 138h-220l-45 -138h-139l221 605h152l217 -605h-141z" />
    <glyph glyph-name="uniE615" unicode="&#xe615;" 
d="M438 709q-22 -18 -46 -45q-21 -23 -46.5 -58.5t-50.5 -84.5q-27 -49 -40 -94.5t-18 -81.5q-6 -42 -6 -79q-11 9 -22 15q-10 5 -23.5 10t-27.5 7q-29 4 -53 -1.5t-40 -14.5q-14 -11 -23 -12.5t-9 14.5q0 34 10 69.5t24.5 66.5t29 55t23.5 36q46 63 100.5 101.5t103.5 59.5
q56 26 114 37zM559 709q57 -10 113 -36q48 -21 103.5 -60t101.5 -101q9 -12 23.5 -36t28.5 -55t25 -66.5t11 -69.5q0 -20 -10 -18t-23 15q-11 9 -33 15t-55 3q-15 -2 -28.5 -7.5t-25.5 -10.5q-12 -7 -23 -15q-1 38 -7 79q-6 36 -19 81t-39 95q-27 49 -52 84t-45 58
q-25 27 -46 45zM498 812q19 0 30 -27q3 -8 8.5 -21t10.5 -25q5 -15 12 -30q-12 7 -24 13l-20 10q-10 5 -17 5t-17.5 -4.5t-19.5 -9.5q-11 -6 -23 -14q6 15 11 31q5 12 9.5 25t7.5 22q6 14 15 19.5t17 5.5zM474 263q8 12 18 13.5t18 -0.5q9 -4 18 -10v-303q0 -44 -18.5 -73.5
t-72.5 -29.5q-28 0 -46 9t-28.5 21.5t-14.5 27.5t-4 27q0 17 10 25t16 9q8 0 18.5 -7.5t11.5 -20.5q1 -17 8.5 -30t28.5 -13q25 0 31 17.5t6 47.5v290zM498 709q2 0 5.5 -0.5t12.5 -8t24.5 -25t42 -51t45.5 -67t32 -63.5t21 -54.5t13 -40.5q3 -11 8 -29.5t9 -38t6 -35
t-2 -20.5q-11 -15 -23 -8t-35 21q-12 7 -31.5 13t-41 10.5t-44 7t-40.5 2.5q-38 1 -79.5 -8t-67.5 -20t-35 -20.5t-20 -6.5q-13 4 -12.5 32.5t19.5 97.5q12 46 26 79.5t28 59.5t28 46.5t26 38t26 33.5t26 28.5t21 19.5t12 7z" />
    <glyph glyph-name="uniE616" unicode="&#xe616;" 
d="M21 390h402v402h-402v-402zM597 792v-402h402v402h-402zM21 -186h402v402h-402v-402zM597 -186h402v402h-402v-402z" />
    <glyph glyph-name="uniE617" unicode="&#xe617;" 
d="M840 276l-318 -318l-314 315l-30 -30l345 -345l30 30l317 318zM553 262v1l317 317l-30 30l-318 -317l-314 314l-30 -30l345 -345z" />
    <glyph glyph-name="uniE618" unicode="&#xe618;" 
d="M423 5q-1 -1 -2.5 -4t-2.5 -4q-16 -15 -38 -15q-23 0 -38 15q-1 1 -3 4t-2 4l-260 259q-10 10 -13.5 23.5t0 27t13.5 23.5q15 15 36.5 15t36.5 -15l230 -230l494 494q7 8 17 11.5t19.5 3.5t19.5 -3.5t17 -11.5q10 -10 13.5 -23t0 -26.5t-13.5 -23.5z" />
    <glyph glyph-name="uniE619" unicode="&#xe619;" 
d="M928 -212q-29 0 -37 26q-1 6 -1 12q0 151 -109 269q-10 10 -10 26t10 25q4 5 6.5 7t7.5 4t11 2q20 0 26 -13q63 -63 98.5 -146.5t35.5 -173.5q-13 -37 -38 -38zM102 -212q-28 0 -36 26q-2 6 -2 12q0 186 134 320q74 74 160 103q-67 43 -107 111.5t-40 144.5
q0 82 40 152.5t109.5 112.5t151.5 42q41 0 80.5 -11t73 -30.5t62 -47.5t49 -61.5t31.5 -74t11 -82.5q0 -129 -88.5 -215t-218.5 -86q-154 0 -262 -109q-53 -52 -81 -122t-28 -147q-14 -37 -39 -38zM518 274q96 0 163.5 67.5t67.5 163.5t-67.5 163t-163.5 67t-163 -67
t-67 -163q-5 -91 62.5 -158.5t167.5 -72.5q-9 0 0 0z" />
    <glyph glyph-name="uniE61A" unicode="&#xe61a;" 
d="M939 663h-203q-10 1 -19 -4.5t-11 -16.5l-36 -142h-586q-9 0 -15 -6t-6 -14v-21q0 -8 6 -14t15 -6h571l-20 -82h-490q-4 0 -8 -1.5t-6.5 -4t-4.5 -6.5t-2 -8v-20q0 -9 6 -15t15 -6h475l-20 -81h-394q-9 0 -14.5 -6t-5.5 -15v-20q0 -4 1.5 -8t4 -6.5t6.5 -4t8 -1.5h415v0
q10 0 19.5 5t12.5 17l106 426h180q9 0 15 6t6 14v21q0 4 -2 7.5t-4.5 6.5t-6.5 4.5t-8 1.5zM236.5 72q-10.5 0 -20 -4t-16 -11t-10.5 -16t-4 -20q0 -21 14.5 -36t36 -15t36 15t14.5 36q0 11 -4 20t-10.5 16t-16 11t-20 4zM654 113q-34 0 -57.5 -24t-23.5 -58
q0 -22 10.5 -40.5t29.5 -29.5t41 -11q34 0 57.5 24t23.5 57q0 23 -10.5 41.5t-29.5 29.5t-41 11z" />
    <glyph glyph-name="uniE61B" unicode="&#xe61b;" 
d="M625 666h-226l-12 -5q-5 -4 -5 -11q0 -4 1.5 -7t4 -4.5t5 -2.5t4.5 -1l2 -1l226 1q18 0 18 15q0 5 -2 8t-4.5 4.5t-5 2.5t-4.5 1h-2zM892 666h-132q-16 0 -16 -16q0 -7 4 -11t8 -4l4 -1l142 1v-103h-780v103l141 -1q18 1 18 16q0 7 -4.5 11t-8.5 4l-5 1h-131q-7 0 -14 -2
t-12 -6t-9.5 -9.5t-6.5 -12.5t-2 -14v-713q0 -18 13 -31t31 -13h760q18 0 31 13t13 31v713q0 18 -13 31t-31 13zM901 -100h-780v598h780v-598zM391 408h59v-59h-59v59zM483 418q0 10 -6.5 16.5t-16.5 6.5h-79q-9 0 -16 -6.5t-7 -16.5v-79q0 -4 2 -8.5t5 -7.5t7 -5t9 -2h79
q10 0 16.5 7t6.5 16v79zM573 408h59v-59h-59v59zM665 418q0 10 -7 16.5t-16 6.5h-79q-6 0 -11.5 -3t-8.5 -8.5t-3 -11.5v-79q0 -9 7 -16t16 -7h79q9 0 16 7t7 16v79zM754 408h59v-59h-59v59zM846 418q0 10 -7 16.5t-16 6.5h-79q-10 0 -16.5 -6.5t-6.5 -16.5v-79q0 -4 2 -8.5
t5 -7.5t7 -5t9 -2h79q9 0 16 7t7 16v79zM754 228h59v-60h-59v60zM846 238q0 9 -7 15.5t-16 6.5h-79q-10 0 -16.5 -6.5t-6.5 -15.5v-79q0 -10 6.5 -16.5t16.5 -6.5h79q9 0 16 6.5t7 16.5v79zM211 228h58v-60h-58v60zM302 238q0 9 -6.5 15.5t-15.5 6.5h-79q-10 0 -16.5 -6.5
t-6.5 -15.5v-79q0 -7 3 -12t8 -8t12 -3h79q9 0 15.5 6.5t6.5 16.5v79zM391 228h59v-60h-59v60zM483 238q0 9 -6.5 15.5t-16.5 6.5h-79q-9 0 -16 -6.5t-7 -15.5v-79q0 -3 0.5 -5t1.5 -4l2 -4q1 -2 2.5 -3.5t3.5 -2.5l4 -2q2 -1 4.5 -1.5t4.5 -0.5h79q5 0 9 1.5t7 5t5 7.5t2 9
v79zM573 228h59v-60h-59v60zM665 238q0 9 -7 15.5t-16 6.5h-79q-9 0 -16 -6.5t-7 -15.5v-79q0 -10 7 -16.5t16 -6.5h79q6 0 11.5 3t8.5 8t3 12v79zM211 47h58v-60h-58v60zM302 56q0 5 -1.5 9t-4.5 7t-7.5 5t-8.5 2h-79q-5 0 -9 -2t-7.5 -5t-5 -7t-1.5 -9v-79q0 -9 6.5 -15.5
t16.5 -6.5h79q6 0 11 3t8 8t3 11v79zM391 47h59v-60h-59v60zM483 56q0 10 -6.5 16.5t-16.5 6.5h-79q-6 0 -11.5 -3t-8.5 -8t-3 -12v-79q0 -9 7 -15.5t16 -6.5h79q6 0 11.5 3t8.5 8t3 11v79zM573 47h59v-60h-59v60zM665 56q0 10 -7 16.5t-16 6.5h-79q-6 0 -11.5 -3t-8.5 -8
t-3 -12v-79q0 -9 7 -15.5t16 -6.5h79q23 0 23 22v79zM348 583q0 -7 -5 -12t-12 -5t-12 5t-5 12v135q0 7 5 12t12 5q5 0 8.5 -2.5t6 -6t2.5 -8.5v-135zM710 583q0 -5 -2.5 -8.5t-6 -6t-8.5 -2.5q-2 0 -4.5 0.5t-4 1.5t-3.5 3t-3 3.5t-1.5 4t-0.5 4.5v135q0 7 5 12t12 5
q5 0 8.5 -2.5t6 -6t2.5 -8.5v-135z" />
    <glyph glyph-name="uniE61C" unicode="&#xe61c;" 
d="M925 475q-34 80 -96 142t-143 96q-41 18 -85 27t-89 9q-23 0 -45.5 -2.5t-44 -7t-43 -11t-42.5 -15.5q-80 -34 -142 -96t-96 -142q-18 -42 -27 -85.5t-9 -89.5q0 -91 36 -174q34 -81 96 -143t142 -96q83 -35 175 -35q30 0 59.5 4t58.5 12t56 19q81 34 143 96t96 143
q35 83 35 174.5t-35 174.5zM512 -117q-114 0 -210 56t-152 152t-56 209q0 85 33 162.5t89 133.5t133.5 89t162.5 33q113 0 209 -56t152 -152t56 -210q0 -161 -108 -280q-106 -116 -260 -134q-25 -3 -49 -3zM705 537l-193 -194l-194 194l-43 -43l194 -194l-194 -193l43 -43
l194 193l193 -193l43 43l-193 193l193 194z" />
    <glyph glyph-name="uniE61D" unicode="&#xe61d;" 
d="M860 647h-247q-1 27 -14.5 50t-36.5 36.5t-50 13.5q-42 0 -71.5 -29t-29.5 -71h-248q-8 0 -15.5 -4.5t-12 -12.5t-4.5 -17v-724q0 -4 1 -8t2.5 -7.5t3.5 -6.5t5 -5.5t6 -4t7 -2.5t7 -1h697q13 0 22.5 10.5t9.5 24.5v724q0 14 -9.5 24t-22.5 10zM441 572v10v10v18v21v14
q0 30 21 50.5t50 20.5t49.5 -20.5t20.5 -50.5v-7v-10v-12v-12q0 -6 -0.5 -11t-0.5 -7v-4v-10l9 -4q25 -11 44 -31.5t31 -49.5h-307q25 58 74 81zM862 -111q0 -2 -1 -3l-1 -1h-697q-1 1 -1 4v724q0 3 1 4h247v-25q-31 -17 -53 -46t-35 -69l-7 -21h393l-6 21q-9 26 -22 48
t-30 38.5t-38 28.5v4v4v6q0 2 0.5 5t0.5 6h247q2 -1 2 -4v-724zM320 354h384v-33h-384v33zM320 226h384v-33h-384v33zM320 97h257v-33h-257v33z" />
    <glyph glyph-name="uniE61E" unicode="&#xe61e;" 
d="M703 -107h-577q-29 0 -49.5 20.5t-20.5 49.5v674q0 14 5.5 27t15 22.5t22.5 15t27 5.5h573q4 0 8.5 1.5t7 4.5t4.5 7.5t2 8.5q0 8 -5 14t-13 8h-577q-31 0 -57 -15.5t-41.5 -41.5t-15.5 -57v-674q0 -47 33.5 -80.5t80.5 -33.5h573q3 0 6.5 1t6.5 3t5 5t3 6.5t1 6.5
q-2 18 -18 22zM1007 318l-135 135l-22 23l-26 25q-6 7 -15 7q-5 0 -9 -2t-7 -5q-14 -14 -2 -29l39 -39l110 -110h-435q-9 0 -15.5 -6.5t-6.5 -16t6.5 -16t15.5 -6.5h435l-100 -100l-6 -6l-46 -46q-8 -16 3 -27q7 -6 16 -6q10 0 18 7l12 12l33 34l7 6l130 131q7 7 6 17v1
q1 5 -1 9t-5 8z" />
    <glyph glyph-name="uniE61F" unicode="&#xe61f;" 
d="M265 251q0 26 16 38t40 10t51 -4q19 -2 37.5 -7.5t31.5 -11.5q4 -2 43 -22q-15 -18 -25 -28.5t-24.5 -22.5t-29.5 -19.5t-33 -10.5q-14 -2 -30 -2q-28 2 -52.5 25.5t-24.5 54.5zM230 231q1 -53 43 -75.5t99 -17.5q43 3 75 19q34 17 86 69q5 -3 16 -9.5t21.5 -12.5
t25 -13.5t27.5 -14.5q23 -11 33.5 -16t27.5 -10.5t27 -4.5t24 5.5t27 15.5t29 29h-2q-2 0 -5 -0.5t-6.5 -0.5t-7.5 0.5t-8 1.5l-21 4q-9 1 -17 3.5t-14.5 4.5t-14.5 5.5t-15.5 6.5t-19 8t-22.5 9q-45 18 -69 29q29 35 55 75.5t38.5 63.5t12.5 25l-123 -1v75h155v26h-155v79
l-42 -2q-8 0 -14 -0.5t-10 -2t-6 -3.5q-2 -1 -3 -3t-2 -3v-65h-103h-47v-26h47h103v-75h-103h-5v-26h5h210q-2 -3 -14 -28.5t-25.5 -47.5t-29.5 -41q-5 2 -34 14q-10 4 -22 8t-25.5 7.5t-29 5.5t-30.5 3q-140 7 -142 -89v-4zM461 -71q-75 41 -124 76.5t-82 74t-49.5 79
t-25 91.5t-8.5 112v140q1 76 1 119q88 27 170 44t169 22q174 -19 337 -66q0 -49 1 -133q0 -80 1 -141t-8 -110.5t-25 -88.5t-49.5 -75.5t-82 -70t-122.5 -73.5q-30 -16 -52 -16t-51 16zM119 672q0 -50 -1 -138v-163q0 -71 9.5 -129.5t28.5 -106t57.5 -91.5t96 -85.5
t143.5 -88.5q23 -13 41 -17t36.5 0t42.5 17q74 40 125 74t89 69.5t59.5 72t36 80.5t17.5 95t5 116t-1 143q-1 96 -1 152q-178 53 -390 76q-57 -3 -109.5 -10t-100.5 -18q-49 -11 -95 -23t-89 -25zM119 672z" />
    <glyph glyph-name="uniE620" unicode="&#xe620;" 
d="M966 484q-15 36 -37 68.5t-50 61.5q-56 56 -129 87q-38 16 -78 24t-81 8q-83 0 -158 -32q-73 -31 -129.5 -87.5t-87.5 -129.5q-32 -76 -32 -158.5t32 -158.5q15 -36 37 -68.5t50 -60.5q57 -57 130 -88q75 -32 158 -32t159 32q36 16 68.5 37.5t60.5 50.5q57 56 87 129
q32 76 32 159q0 27 -3.5 54t-10.5 53t-18 51zM591 -51q-102 0 -189 50.5t-137 137t-50 189.5q0 76 29.5 145.5t80 120t120.5 80.5t146 30q102 0 189 -50.5t137.5 -137t50.5 -188.5q0 -149 -102 -258q-101 -107 -246 -118q-15 -1 -29 -1zM763 340h-139v163q0 9 -7 16t-16 7
h-24q-9 0 -16 -7t-7 -16v-209q0 -10 7 -17t16 -7h186q6 0 11.5 3.5t8.5 8.5t3 12v23q0 9 -6.5 16t-16.5 7z" />
    <glyph glyph-name="uniE621" unicode="&#xe621;" 
d="M512 748q-73 0 -141.5 -22.5t-123.5 -64t-96.5 -96.5t-64 -123.5t-22.5 -141.5q0 -91 35.5 -174t95.5 -143t143 -95.5t174 -35.5t174 35.5t143 95.5t95.5 143t35.5 174q0 52 -11.5 102.5t-34 94.5t-53 83t-69.5 69.5t-83 53t-94.5 34t-102.5 11.5zM512 -112
q-112 0 -207 55t-150 150t-55 207t55 207t150 150t207 55t207 -55t150 -150t55 -207t-55 -207t-150 -150t-207 -55zM736 460l-288 -279l-100 101q-6 5 -12.5 7t-13.5 0t-12 -7q-4 -4 -6 -9t-2 -10t2 -10t6 -9l119 -120q8 -8 19 -8t19 8l307 297q8 8 8 19t-8 19q-5 6 -12 7.5
t-14 0t-12 -6.5z" />
    <glyph glyph-name="uniE622" unicode="&#xe622;" 
d="M512 -132q-88 0 -169 34q-78 33 -138.5 93.5t-93.5 138.5q-17 40 -25.5 82.5t-8.5 86.5q0 89 34 169q33 79 93.5 139t138.5 93q40 17 82.5 25.5t86.5 8.5q88 0 169 -34q78 -33 138.5 -93t93.5 -139q34 -80 34 -168.5t-34 -169.5q-33 -78 -93.5 -138.5t-138.5 -93.5
q-81 -34 -169 -34zM512 687q-38 0 -75.5 -7.5t-71.5 -21.5t-65.5 -35t-58.5 -48q-55 -55 -84 -125t-29 -147t29 -147t83.5 -124.5t124.5 -83.5t147 -29t147 29t124.5 83.5t83.5 124.5t29 147t-29 147t-83.5 124.5t-124.5 83.5t-147 29zM512 28q-11 0 -18.5 7.5t-7.5 18.5
v327q0 11 7.5 18.5t18.5 7.5q7 0 13 -3.5t9.5 -9.5t3.5 -13v-327q0 -11 -7.5 -18.5t-18.5 -7.5zM512 519q-11 0 -18.5 7.5t-7.5 18.5v2q0 7 3.5 13t9.5 9.5t13 3.5q4 0 8 -1.5t7 -4t5.5 -5.5t4 -7t1.5 -8v-2q0 -11 -7.5 -18.5t-18.5 -7.5z" />
    <glyph glyph-name="uniE623" unicode="&#xe623;" 
d="M0 761h1024v-158h-1024v158zM0 367h1024v-158h-1024v158zM0 -27h1024v-158h-1024v158z" />
    <glyph glyph-name="uniE624" unicode="&#xe624;" 
d="M2 112q0 -99 70 -169t169 -70q68 0 125.5 36t87.5 96l229 -41v-6q0 -70 50 -120t121 -50q46 0 85 23t62 62t23 85q0 71 -50 121t-120 50q-34 0 -64.5 -12.5t-53.5 -34.5t-37 -51l-224 39q1 4 1.5 8t1 8.5t1 8.5t0.5 8v9q0 93 -63 161l207 207q14 -5 29.5 -8t30.5 -3
q71 0 121 50t50 120q0 47 -23 86t-62 62t-85.5 23t-85.5 -23t-62 -62t-23 -86q0 -71 51 -121l-201 -202q-57 34 -122 34q-99 0 -169 -70t-70 -168zM2 112z" />
    <glyph glyph-name="uniE625" unicode="&#xe625;" 
d="M601 -184q3 -1 7.5 -2t20 -5t31.5 -7t39 -6t44.5 -5t46 -2t46.5 2.5t43.5 8.5t38.5 16l79 99l16 32q25 63 -16 91l-200 149q-3 3 -8.5 6.5t-21.5 10t-30 9t-31.5 -3.5t-29.5 -22l-52 -51q-2 -2 -5.5 -5t-14.5 -8t-22.5 -7t-27 3t-29.5 19l-199 200q-2 2 -5.5 5t-10 12
t-8.5 18t3.5 21t20.5 23l72 45q2 2 5.5 6.5t11 17.5t10 26.5t-2.5 33.5t-21 39l-126 201q-3 2 -9 5.5t-24.5 10.5t-37.5 9t-46.5 -3.5t-53.5 -21.5l-79 -75q-1 -1 -3 -3.5t-6.5 -13t-7.5 -24t-5 -38t-1 -53.5t6.5 -72t16.5 -91q0 -10 29 -65q109 -201 360 -401
q87 -69 187 -134z" />
    <glyph glyph-name="uniE626" unicode="&#xe626;" 
d="M954 480.5q-9 9.5 -22 9.5t-23 -9l-230 -231l-124 125q-9 9 -22 9t-22.5 -9t-9.5 -22t9 -22l147 -147q9 -9 22 -9t23 9l252 252q9 9 9 22t-9 22.5zM409 406h-189q-13 0 -22 -9.5t-9 -22.5t9 -22t22 -9h189q9 0 16 4t11.5 11.5t4.5 15.5q0 5 -1.5 10t-4.5 9t-7 6.5t-9 4.5
t-10 2zM409 259h-189q-13 0 -22 -9.5t-9 -22.5q0 -6 2.5 -12t6.5 -10t10 -6.5t12 -2.5h189q13 0 22.5 9t9.5 22t-9.5 22.5t-22.5 9.5zM682 122q-13 0 -22 -9t-9 -22v-42q0 -18 -3.5 -26.5t-12 -12t-26.5 -3.5h-441q-18 0 -26.5 3.5t-12 12t-3.5 26.5v504q0 10 1 17t3.5 12
t7.5 7.5t12 4t18 1.5h441q26 0 34 -8t8 -34v-105v-1q0 -13 9 -22t22 -9q9 0 16 4t11.5 11.5t4.5 15.5v1v147q0 26 -18.5 44.5t-44.5 18.5h-525q-7 0 -13 -1.5t-11.5 -4t-10.5 -6t-9.5 -7.5t-8 -9t-6 -11t-3.5 -12t-1 -12v-588q0 -26 18.5 -44.5t44.5 -18.5h525
q26 0 44.5 18.5t18.5 44.5v84q0 13 -9.5 22t-22.5 9z" />
  </font>
</defs>
</svg>
